<?xml version="1.0" standalone="no"?>
<!DOCTYPE svg PUBLIC "-//W3C//DTD SVG 20010904//EN"
 "http://www.w3.org/TR/2001/REC-SVG-20010904/DTD/svg10.dtd">
<svg version="1.0" xmlns="http://www.w3.org/2000/svg"
 width="771.000000pt" height="137.000000pt" viewBox="0 0 771.000000 137.000000"
 preserveAspectRatio="xMidYMid meet">

<g transform="translate(0.000000,137.000000) scale(0.100000,-0.100000)"
fill="#000000" stroke="none">
<path d="M1865 1304 c-64 -33 -90 -108 -62 -176 40 -95 187 -113 266 -34 32
32 36 42 36 85 0 58 -24 97 -76 123 -42 22 -123 22 -164 2z"/>
<path d="M680 1009 l0 -211 -45 50 c-64 71 -127 97 -235 97 -77 0 -93 -3 -152
-33 -144 -71 -218 -212 -218 -415 0 -188 80 -336 219 -404 50 -25 67 -28 156
-28 93 0 104 2 155 31 30 17 70 50 88 73 l32 43 0 -71 0 -71 135 0 135 0 0
575 0 575 -135 0 -135 0 0 -211z m-113 -310 c70 -26 113 -100 113 -194 0 -136
-96 -228 -218 -211 -91 12 -150 81 -159 184 -9 101 31 187 102 218 37 16 123
18 162 3z"/>
<path d="M3320 645 l0 -575 135 0 135 0 0 170 c0 94 4 170 9 170 5 0 64 -76
130 -170 l122 -170 161 0 c151 0 160 1 147 18 -8 9 -87 106 -177 214 -114 138
-161 202 -155 212 4 7 80 102 168 210 88 108 162 201 163 206 2 6 -57 10 -150
10 l-153 0 -125 -165 c-69 -91 -128 -165 -132 -165 -5 0 -8 137 -8 305 l0 305
-135 0 -135 0 0 -575z"/>
<path d="M5330 645 l0 -575 135 0 135 0 0 67 0 68 43 -47 c65 -71 121 -93 237
-93 82 0 103 4 151 26 142 67 219 213 219 414 0 199 -73 336 -218 407 -59 30
-75 33 -152 33 -108 0 -171 -26 -235 -97 l-45 -50 0 211 0 211 -135 0 -135 0
0 -575z m543 51 c72 -29 113 -114 105 -216 -8 -107 -65 -173 -160 -186 -118
-16 -217 75 -218 201 0 98 35 165 102 198 40 20 127 22 171 3z"/>
<path d="M6390 645 l0 -575 135 0 135 0 0 575 0 575 -135 0 -135 0 0 -575z"/>
<path d="M1632 939 c-61 -12 -136 -56 -183 -106 -21 -24 -42 -43 -44 -43 -3 0
-5 34 -5 75 l0 75 -135 0 -135 0 0 -435 0 -435 135 0 135 0 0 213 c0 236 7
276 54 323 39 39 89 54 179 54 l67 0 0 145 c0 110 -3 145 -12 144 -7 -1 -32
-5 -56 -10z"/>
<path d="M2741 940 c-59 -13 -122 -51 -165 -101 l-35 -41 -3 68 -3 69 -132 3
-133 3 0 -436 0 -435 134 0 134 0 -1 262 -2 263 25 44 c33 59 79 86 150 86 66
-1 112 -24 143 -75 21 -33 22 -48 25 -308 l3 -272 135 0 136 0 -4 303 c-5 332
-10 365 -68 445 -73 101 -207 149 -339 122z"/>
<path d="M4509 937 c-177 -50 -279 -208 -279 -432 0 -197 78 -343 219 -412 50
-25 67 -28 156 -28 92 0 104 2 154 30 29 16 69 49 87 74 l34 44 0 -72 0 -71
135 0 135 0 0 435 0 436 -132 -3 -133 -3 -3 -68 -3 -68 -44 49 c-28 31 -64 58
-97 72 -64 28 -165 35 -229 17z m295 -260 c48 -37 68 -78 74 -153 8 -103 -32
-178 -113 -215 -98 -45 -215 3 -251 103 -28 75 -12 185 33 239 39 46 77 60
154 56 54 -2 73 -7 103 -30z"/>
<path d="M7160 943 c-222 -37 -360 -205 -360 -438 0 -215 120 -379 315 -431
106 -29 249 -13 349 38 85 43 170 150 192 241 l6 27 -140 0 -140 0 -20 -34
c-27 -46 -64 -68 -120 -73 -90 -8 -157 46 -177 144 l-7 33 304 2 303 3 3 65
c4 75 -12 158 -40 214 -29 56 -100 128 -157 160 -81 43 -216 65 -311 49z m157
-223 c49 -22 83 -70 83 -117 l0 -33 -165 0 -165 0 0 29 c0 65 91 141 170 141
19 0 54 -9 77 -20z"/>
<path d="M1817 933 c-4 -3 -7 -199 -7 -435 l0 -428 135 0 135 0 0 435 0 435
-128 0 c-71 0 -132 -3 -135 -7z"/>
</g>
</svg>
