<?xml version="1.0" standalone="no"?>
<!DOCTYPE svg PUBLIC "-//W3C//DTD SVG 20010904//EN"
 "http://www.w3.org/TR/2001/REC-SVG-20010904/DTD/svg10.dtd">
<svg version="1.0" xmlns="http://www.w3.org/2000/svg"
 width="596.000000pt" height="108.000000pt" viewBox="0 0 596.000000 108.000000"
 preserveAspectRatio="xMidYMid meet">

<g transform="translate(0.000000,108.000000) scale(0.100000,-0.100000)"
fill="#000000" stroke="none">
<path d="M1449 1052 c-87 -78 4 -204 123 -171 79 21 105 113 49 170 -26 25
-37 29 -85 29 -47 0 -61 -4 -87 -28z"/>
<path d="M570 844 l0 -167 -38 41 c-51 55 -101 75 -183 75 -176 0 -288 -146
-277 -361 9 -194 116 -312 280 -312 80 0 114 14 176 73 l42 41 0 -57 0 -58 98
3 97 3 0 440 0 440 -97 3 -98 3 0 -167z m-80 -242 c43 -21 80 -89 80 -146 0
-97 -78 -173 -166 -163 -58 6 -92 30 -115 80 -53 117 16 247 131 247 19 0 51
-8 70 -18z"/>
<path d="M3482 781 c-66 -23 -132 -85 -164 -155 -20 -44 -23 -67 -23 -166 0
-99 3 -122 24 -167 49 -110 171 -184 280 -169 64 9 128 43 155 82 12 19 26 31
29 27 4 -3 7 -28 7 -55 l0 -48 95 0 95 0 0 330 0 330 -95 0 -95 0 0 -50 c0
-27 -3 -50 -6 -50 -4 0 -24 18 -45 39 -25 27 -55 45 -90 55 -67 20 -101 20
-167 -3z m233 -180 c67 -38 92 -157 49 -232 -36 -62 -122 -89 -192 -60 -39 16
-74 73 -80 130 -8 86 27 152 93 176 44 16 85 12 130 -14z"/>
</g>
</svg>
